<?xml version="1.0" standalone="no"?>
<!DOCTYPE svg PUBLIC "-//W3C//DTD SVG 20010904//EN"
 "http://www.w3.org/TR/2001/REC-SVG-20010904/DTD/svg10.dtd">
<svg version="1.0" xmlns="http://www.w3.org/2000/svg"
 width="512.000000pt" height="512.000000pt" viewBox="0 0 512.000000 512.000000"
 preserveAspectRatio="xMidYMid meet">
<metadata>
Created by potrace 1.14, written by Peter Selinger 2001-2017
</metadata>
<g transform="translate(0.000000,512.000000) scale(0.100000,-0.100000)"
fill="#000000" stroke="none">
<path d="M1031 5107 c-51 -26 -64 -58 -64 -156 -1 -50 -3 -92 -6 -92 -3 -1
-85 -2 -181 -3 -222 -3 -292 -21 -421 -107 -103 -69 -183 -176 -231 -309 l-23
-65 -2 -1915 c-1 -1082 2 -1935 7 -1960 5 -25 12 -55 14 -68 8 -36 52 -127 84
-174 67 -97 181 -183 305 -230 l62 -23 1960 -2 c1625 -2 1970 0 2017 11 209
50 377 207 441 411 l22 70 0 1935 0 1935 -24 74 c-66 200 -221 344 -431 401
-26 8 -117 14 -217 15 -95 0 -176 5 -180 9 -5 4 -9 45 -9 90 -2 114 -22 148
-96 161 -29 5 -46 2 -72 -15 -45 -27 -59 -70 -54 -165 3 -67 2 -74 -17 -77
-17 -3 -712 -2 -740 1 -6 1 -10 32 -10 79 1 42 -3 92 -9 109 -24 83 -148 95
-196 19 -8 -12 -15 -55 -16 -106 -1 -47 -3 -89 -3 -95 -1 -7 -133 -10 -378 -9
-208 1 -380 2 -383 3 -3 0 -5 39 -4 85 1 92 -11 132 -48 155 -36 22 -84 24
-117 5 -46 -27 -59 -64 -57 -160 1 -51 -2 -84 -9 -85 -5 -1 -178 -2 -382 -3
l-373 -1 -1 45 c-1 25 0 61 1 81 4 99 -81 167 -159 126z"/>
</g>
</svg>
